<svg width="20" height="20" viewBox="0 0 20 20" fill="none" xmlns="http://www.w3.org/2000/svg">
<path fill-rule="evenodd" clip-rule="evenodd" d="M4.82376 11.6834C4.85956 11.6953 4.89638 11.704 4.93376 11.7092C5.16953 12.2648 5.40397 12.8209 5.63709 13.3776C6.05626 14.3792 6.47876 15.4109 6.57126 15.7076C6.68709 16.0726 6.80876 16.3209 6.94209 16.4909C7.01126 16.5776 7.09043 16.6542 7.18376 16.7126C7.23238 16.743 7.2844 16.7676 7.33876 16.7859C7.60542 16.8859 7.84876 16.8442 8.00126 16.7934C8.09075 16.7629 8.1759 16.7208 8.25459 16.6684L8.25876 16.6667L10.6138 15.1984L13.3346 17.2834C13.3746 17.3142 13.4179 17.3401 13.4646 17.3609C13.7913 17.5026 14.1079 17.5526 14.4063 17.5126C14.7029 17.4709 14.9388 17.3467 15.1146 17.2059C15.3165 17.0432 15.4775 16.8354 15.5846 16.5992L15.5921 16.5809L15.5946 16.5742L15.5963 16.5709V16.5692L15.5971 16.5684C15.6116 16.5326 15.6227 16.4955 15.6304 16.4576L18.1138 3.93674C18.1216 3.89666 18.1255 3.85591 18.1254 3.81507C18.1254 3.4484 17.9871 3.09924 17.6629 2.8884C17.3846 2.70757 17.0754 2.69924 16.8796 2.71424C16.6696 2.7309 16.4746 2.78257 16.3438 2.82424C16.2705 2.84745 16.1982 2.87358 16.1271 2.90257L16.1179 2.90674L2.18959 8.37007L2.18792 8.3709C2.1408 8.38824 2.09437 8.40742 2.04876 8.4284C1.93831 8.47806 1.83236 8.53717 1.73209 8.60507C1.54292 8.73424 1.10709 9.08924 1.18126 9.6759C1.23959 10.1426 1.55959 10.4301 1.75542 10.5684C1.86209 10.6442 1.96376 10.6984 2.03876 10.7342C2.07209 10.7509 2.14376 10.7792 2.17459 10.7926L2.18292 10.7951L4.82376 11.6834ZM16.6054 4.05674H16.6038C16.5966 4.05992 16.5894 4.06298 16.5821 4.0659L2.63709 9.53674C2.62992 9.53964 2.62269 9.54242 2.61542 9.54507L2.60709 9.54757C2.58162 9.55758 2.55659 9.5687 2.53209 9.5809C2.55529 9.59419 2.57921 9.60615 2.60376 9.61674L5.22209 10.4984C5.26888 10.5142 5.31364 10.5354 5.35542 10.5617L14.0029 5.49924L14.0113 5.49507C14.0448 5.47466 14.0793 5.45575 14.1146 5.4384C14.1746 5.40757 14.2704 5.36257 14.3788 5.32924C14.4538 5.3059 14.6763 5.24007 14.9163 5.31757C15.0436 5.35769 15.157 5.43281 15.2437 5.53434C15.3303 5.63586 15.3866 5.75971 15.4063 5.89174C15.4373 6.00736 15.4382 6.12902 15.4088 6.24507C15.3504 6.47424 15.1904 6.65257 15.0446 6.78924C14.9196 6.9059 13.2979 8.46924 11.6988 10.0126L9.52126 12.1126L9.13376 12.4876L14.0271 16.2392C14.0931 16.267 14.1649 16.2784 14.2363 16.2726C14.2722 16.2677 14.306 16.2527 14.3338 16.2292C14.3675 16.2007 14.3965 16.167 14.4196 16.1292L14.4213 16.1284L16.8296 3.98424C16.7537 4.00248 16.6793 4.02644 16.6071 4.0559L16.6054 4.05674ZM9.55459 14.3851L8.57793 13.6367L8.34126 15.1409L9.55459 14.3851ZM7.68209 12.1517L8.65293 11.2142L10.8304 9.11257L11.6413 8.3309L6.20792 11.5117L6.23709 11.5801C6.57976 12.3896 6.91866 13.2007 7.25376 14.0134L7.48959 12.5134C7.51093 12.3743 7.57879 12.2473 7.68209 12.1517Z" fill="white"/>
</svg>
