<?xml version="1.0" encoding="UTF-8"?>
<svg version="1.1" viewBox="0 0 816 816" width="204" height="204" xmlns="http://www.w3.org/2000/svg">
<path transform="translate(384,165)" d="m0 0 9 1 29 15 19 10 24 14 19 12 17 12 16 12 13 10 11 9 2 4-2 5-1 6v27l3 17-1 33 4 18 6-1 13-5 3 1-2 4-7 11-3 12-3 15-1 3-1 38v30l1 22 1 10 1 2-3 3h-3l-2 4-8 6-6 7-16 12-16 10-6 4-5 2h-3l-1 3-9 6v-3l-2-1-9 5-17 10h-2v3l-4 1 1 3 3 1-2 4-4-2-1-3-7 1-6 3-1 3 14 5h17l48-4 6-2 18-3 24-8 24-13 14-10 11-9 3-3h2l2-4 9-11 7-7 4-1 1 3-3 8-13 25-6 11-12 17-9 12-8 10-6 11-9 10-10 7-7 5-11 4-66-10-10-2-25-3-48-1-7-3-9-3h-38-3-8l2-3h-11l-11 8-14 14-8 11-3 1 1-7 3-8 8-16 9-14 8-10 9-9 9-5 21 3 21 4 5 1 20 1 9 1 1-9 1-1h9l-3-5-1-5-5-3-6 1-5-4-1-2-8-4-13-4h-18l-9 1h-16l-8 1h-8-4l-8 1-22 6-10 4-6 2-9-7-4-8-11-12v-4l-10 1-1-4 6-14 14-22 10-11 4-3h2l-1 5-5 9-2 5v4h2l-1 4-3 6v4l2 1 1-4h1v8l2 8 9 7 6 4 7-1 8-4 7-8 4-11 1-9 1-59 7-8 6-9 4-10 3-9v-19l-6-18-2-3-2-7-9 1-2-4v-66l-4 1-5-2-4-1 1-3 12-7 10-8 7-8 6-12 3-2 5 10 8 11 8 10 6 8 1 6-2 9-6 17-1 73 1 4v56l3 9 3 1 18-10 4-3h2l-1 4-8 10-2 6h4v2l-5 1 4 11 3 15 8 17 14 10 14 7 16 7 9 4 2 1h8l12-6 14-9 10-9h2l2-4 7-8 12-23 6-19 5-27 1-4 1-18v-63l-1-14-3-16v-6-4l-10-38-9-21-5-10-8-7-4-5v-2l-2-2-1-3-2-1 1 3h-2l-2-5-6-4-12-5-9-4-3-5-6-1-6-4-7-3-3-2v-2h-2v-2l-7-2v-3h-7l-5-2-4-1-1 4-4 1-2-3h-4l-8 1-18 6-8 6h-2l-2 4-5 6-6 2v2l-4 4h-2l-2 4-7 5-5 3-4 4-6 3-5 4-1 14-6 5-1 3 3 1-1 2-4-1-4-5-5 1-5 3-2 6-7 11-3 6 2 5 1 6-1 3 8 15 6 7v3l-9 1-6 2-15-4-11-9-8-6-5-6v-2l-4-2-2-4 7-11 5-21 1-6-9 1-16 11h-3l2-4 13-17 23-23 14-11 13-10 17-11 15-9 27-14 26-11 33-11zm-59 112 2 6 3 2-2-5zm-32 28 1 3 1-3zm257 206v3zm-158 59m49 12m-1 1v3z" fill="#F8F7F5"/>
<path transform="translate(384,165)" d="m0 0 9 1 29 15 19 10 24 14 19 12 17 12 16 12 13 10 11 9 2 4-2 5-1 6v27l3 17-1 33 4 18 6-1 13-5 3 1-2 4-2 2-6 5-6 7-1 3-5 4-1 2h-2l-1-2v1l-2 9-3 9h2v5l-6 9v3l6-8 1 2-7 14-1 14-3 45-1 10-3 6-10 13-9 10-5 6h-2v2l-7 6-5 5-10 8-9 6-14 8-12 5h-5l-8-4-14-5-8-1-18-8-13-5-10-5v-2l8-1-1-7h2l-2-8 11 7 12 8 23 10 9 4 4 2h8l12-6 14-9 10-9h2l2-4 7-8 12-23 6-19 5-27 1-4 1-18v-63l-1-14-3-16v-6-4l-10-38-9-21-5-10-8-7-4-5v-2l-2-2-1-3-2-1 1 3h-2l-2-5-6-4-12-5-9-4-3-5-6-1-6-4-7-3-3-2v-2h-2v-2l-7-2v-3h-7l-5-2-4-1-1 4-4 1-2-3h-4l-8 1-18 6-8 6h-2l-2 4-5 6-6 2v2l-4 4h-2l-2 4-7 5-5 3-4 4-6 3-5 4-1 14-6 5-1 3 3 1-1 2-4-1-4-5-5 1-5 3-2 6-7 11-3 6 2 5 1 6-1 3 8 15 6 7v3l-9 1-6 2-15-4-11-9-8-6-5-6v-2l-4-2-2-4 7-11 5-21 1-6-9 1-16 11h-3l2-4 13-17 23-23 14-11 13-10 17-11 15-9 27-14 26-11 33-11z" fill="#D4CCC1"/>
<path transform="translate(368,225)" d="m0 0 10 2 17 6 29 14 14 10 10 9 8 7 8 10 3 6-2 4-3 3-11 23-2 4-1 8-1 56-1 5 1 2v13l-1 4 1 1v116l-1 8v7l-5 5h-2l1 6-5-2-7-2-12-6-9-7 1-2 2 1-1-3-4 1-1 2-4-2-1-218-4-10-5-13-6-13-6-8-5-7-5-5-2-1v3l-6-2v-4l2-2h-5v2l-4 1-1-3h-13l-8 1 2-4 8-8 13-10z" fill="#D4CCC0"/>
<path transform="translate(323,267)" d="m0 0 3 3 3 7 8 11 8 10 6 8 1 6-2 9-6 17-1 73 1 4v56l3 9 3 1 18-10 4-3h2l-1 4-8 10-5 6-6 10-1 5h-2l-2 4-7 9-5 5h-2v10l-4 5-22 15-17 10-15 6-4 1h-8l-8-6-4-5v-2l7 1 4 4v2l4 1-2-6-7-8-1-4 5 2 8 6 7-1 8-4 7-8 4-11 1-9 1-59 7-8 6-9 4-10 3-9v-19l-6-18-2-3-2-7-9 1-2-4v-66l-4 1-5-2-4-1 1-3 12-7 10-8 7-8 6-12zm2 10 2 6 3 2-2-5zm-32 28 1 3 1-3z" fill="#4A4334"/>
<path transform="translate(563,370)" d="m0 0v3l-4 7-3 12-3 15-1 3-1 38v30l1 22 1 10 1 2-3 3h-3l-2 4-8 6-6 7-16 12-16 10-6 4-5 2h-3l-1 3-9 6v-3l-2-1-9 5-17 10h-2v3l-4 1 1 3 3 1-2 4-4-2-1-3-7 1-6 3-2 3-4-1-15-4-1-2h6l-3-5-1-5-5-3-6 1-5-4-1-2-8-4-13-4h-18l-9 1h-16l-8 1h-8-4l-8 1-22 6-10 4-6 2-9-7-4-8-11-12v-4l-10 1-1-4 6-14 14-22 10-11 4-3h2l-1 5-5 9-2 5v4h2l-1 4-3 6v4l2 1 1-4h1v8l2 8 3 3 2 5 7 8v5l-4-1-4-5-4-1-3-1 6 8 6 4h8l12-4 16-8 11-7 16-11 6-6v-8l5-5 8-9 4-6h2l1-7 7-11 2-1v4h4v2l-5 1 4 11 3 15 7 15-1 2 1 4-1 3-2-1 2 6-1 2h-8l3 3 14 6 14 5 2 2 10 3 8 2 19 7 1 1 8-1 16-8 14-8 8-7 6-5h2l2-4h2l2-4h2v-2h2l2-4 9-9 12-16 3-6 2-29 2-26 1-14 7-14-4 5-2 2-1-4 6-9 1-5h-2v-5l4-10v-2l-2-1 4-2v3h2l2-4 4-2 1-4zm-13 141v3zm-158 59m49 12m-1 1v3z" fill="#211F16"/>
<path transform="translate(384,165)" d="m0 0 9 1 29 15 19 10 24 14 19 12 17 12 16 12 3 3-5 1-2-1v2l-4-1-7-3-6-3-8-2v2l-5-2-5-4v-2l-5-2-14-8v-3l-7-2-12-7v-2l-6-2 1-2-3-2v-2l-4 1v-2l-6-2-8-4-4-1-11-3-5-2h-7l-24 4-12 5-18 10-4 4-17 10-15 10-9 7-14 12-4 1v2l-11 7-4 5-8 8-3 20-3 8 1 9-7 6-11 4-4-1-4 2-4-4 2-5 5-8 5-21 1-6-9 1-16 11h-3l2-4 13-17 23-23 14-11 13-10 17-11 15-9 27-14 26-11 33-11z" fill="#FCFBFA"/>
<path transform="translate(371,189)" d="m0 0h21l16 6 15 8 17 8 7 5v2l9 3v4l4 1v2h7l5 4 1 2 8 4 16 14 5 6 5 5 3 4-10-1h-2v3l-4 3-7-2-3-6-8-7-4-5v-2l-2-2-1-3-2-1 1 3h-2l-2-5-6-4-12-5-9-4-3-5-6-1-6-4-7-3-3-2v-2h-2v-2l-7-2v-3h-7l-5-2-4-1-1 4-4 1-2-3h-4l-8 1-18 6-8 6h-2l-2 4-5 6-6 2v2l-4 4h-2l-2 4-7 5-5 3-4 4-6 3-5 4-1 14-6 5-1 3 3 1-1 2-4-1-4-5-5 1-5 3-2 6-7 11-3 6 2 5 1 6-1 3 8 15 6 7v3l-9 1-6 2-15-4-11-9-8-6-5-6 1-4 2-1 4 1 12-5 4-4-1-9 3-8 3-20 7-8 5-5 10-7h2v-2l6-4 13-11 11-8 17-11 14-8 23-13 12-4z" fill="#4B4335"/>
<path transform="translate(444,277)" d="m0 0h3l-2 4-3 2-1 4 9-2 5-1 2-5 3 2 2 3 5 5-2 4-3 3-11 23-2 4-1 8-1 56-1 5 1 2v13l-1 4 1 1v116l-1 8v7l-5 5h-2l1 6-5-2-7-2-12-6-9-7 1-2 2 1-1-3-2-2 11-7 5-5v-10l2-7-1-1-1-17 1-5-4-1 3-6 1-12v-30l1-12-1-3v-35l2-6-1-1v-5l3-4-3-3-1-4 1-50 3-21 1-2 10-1z" fill="#4F4738"/>
<path transform="translate(515,324)" d="m0 0 2 3 4-2 2 8 1 11 2 10-1 5 1 7-1 6-3 4 1 6-3 5v3l-1 4 4-1 3-3 1 1h5v16l-1 7 1 5-1 7-5 3-2-1-1 8-6 2v4h6l1-5 3 1v2h-2l1 4h3l1 2v12l-1 15-1 30-3 6-10 13-9 10-5 6h-2v2l-7 6-5 5-10 8-9 6-14 8-12 5h-5l-8-4-14-5-8-1-18-8-13-5-10-5v-2l8-1-1-7h2l-2-8 11 7 12 8 23 10 9 4 4 2h8l12-6 14-9 10-9h2l2-4 7-8 12-23 6-19 5-27 1-4 1-18v-63l-1-14-3-16 1-5h2l1-4h2l-1-8z" fill="#F9F9F7"/>
<path transform="translate(627,526)" d="m0 0 2 1-3 8-13 25-6 11-12 17-9 12-8 10-6 11-9 10-10 7-7 5-11 4-66-10-10-2-25-3-48-1-7-3-9-3h-38-3-8l2-3h-11l-5 2 4-4 16-8 3-1 37 2 25 2h16l7-2h6l15 4 17 1 55 2 23-1 6-2 19-10 7-4 3 1 4-7h2l1-4 8-6 4-5h2l2-4 11-11 9-12 10-14 7-12z" fill="#211F16"/>
<path transform="translate(323,388)" d="m0 0 4 2v3l4 1 1 11 1 1v14l-3 27-6 17-2 9v16l2 13 3 6 5-5 1-2-6 5 1-5 13-10 10-9 3-3 17-10 3-1-1 4-8 10-5 6-6 10-1 5h-2l-2 4-7 9-5 5h-2v10l-4 5-22 15-17 10-15 6-4 1h-8l-8-6-4-5v-2l7 1 4 4v2l4 1-2-6-7-8-1-4 5 2 8 6 7-1 8-4 7-8 4-11 1-9 1-59 7-8 6-9 4-10 3-9v-19l-3-10 1-3z" fill="#FAF9F8"/>
<path transform="translate(395,303)" d="m0 0 2 2 2 6 6-2 1 4 2-4 5 2 6 3 2-1 2 3v78l-1 4 1 1v19l1 1-1 18v22l-6 6 5 4-1 7-7 5-1 2h-7l-1 3 3 1-3 4 1 4-1 2 3-1 7 3 6 2 2 4-1 7h2v7l-7 7-10 6-3 4-4-2-1-218-4-10z" fill="#FCFBFA"/>
<path transform="translate(362,484)" d="m0 0 1 4h4v2l-5 1 4 11 3 15 7 15-1 2 1 4-1 3-2-1 2 6-1 2h-8l3 3 2 1v2l6 2 3 3-3 2-9-1-18 1-9 1h-16l-8 1h-8-4l-8 1-22 6-10 4-6 2-9-7-4-8-11-12v-4l-10 1-1-4 6-14 14-22 10-11 4-3h2l-1 5-5 9-2 5v4h2l-1 4-3 6v4l2 1 1-4h1v8l2 8 3 3 2 5 7 8v5l-4-1-4-5-4-1-3-1 6 8 6 4h8l12-4 16-8 11-7 16-11 6-6v-8l5-5 8-9 4-6h2l1-7 7-11z" fill="#130F0B"/>
<path transform="translate(329,611)" d="m0 0 38 2 25 2h16l7-2h6l15 4 17 1 28 1 1 1 13 1 2 4-2 3-9 1-4-1v5l7-1 4 2 1-2 3 1-1 7h-8l-19-3-10-2-25-3-48-1-7-3-9-3h-38-3-8l2-3h-11l-5 2 4-4 16-8z" fill="#19140F"/>
<path transform="translate(323,267)" d="m0 0 3 3 2 6-1 4-1-1-1 16 1 10-3 16 1 7 2 1v5l-4-1-1 19 5 1v3h-2v3h-2v8l-5 4-10 4-3 4-5-1-1-3v-66l-4 1-5-2-4-1 1-3 12-7 10-8 7-8 6-12zm-30 38 1 3 1-3z" fill="#FBFBF9"/>
<path transform="translate(536,265)" d="m0 0h5l-1 10v27l3 17-1 33 4 18h6l-4 5-1 3-3 2-3-1 5-7h-11v2l-5-1-3-14-1-2v-11l-3-23-2-13-3-16-2-19 2-3 5-3z" fill="#473F31"/>
<path transform="translate(258,492)" d="m0 0h2l-1 5-5 9-2 5v4h2l-1 4-3 6v4l2 1 1-4h1v8l2 8 3 3 2 5 7 8v5l-4-1-4-5-4-1-3-1 6 8 6 4h8l12-4 16-8 11-7 16-11 6-6v-8l1-2 2 1v2l5-2 2 5 7-3 3 1-8 6h-2v3l-6-1 1 2 3 1-1 2-4 2-6-1v2h-2l-2 5-5-1-4 6-10 3-9 5-4 3 2 2-22 6-10 4-6 2-9-7-4-8-11-12v-4l-10 1-1-4 6-14 14-22 10-11z" fill="#242118"/>
<path transform="translate(533,433)" d="m0 0 1 2-1 20v10l-1 7-1 4v24l3 1 2 6v5l-4-1-1-5-3 6-2 7-4-1v2l-4 1-2 4h-2v4l-7 6-2 3h-2l-1 3-6 5h-2l-1 3-9 7h-2v2l-6 4-5 5-22 12-3 1v3l-4 1 1 3 3 1-2 4-4-2-1-3-7 1-6 3-2 3-4-1-15-4-1-2h6l-3-5-1-5-5-3-6 1-5-4-1-2-8-4-13-4v-2l9 1 2-2-8-4 3-1 9 4 14 5 2 2 10 3 8 2 19 7 1 1 8-1 16-8 14-8 8-7 6-5h2l2-4h2l2-4h2v-2h2l2-4 9-9 12-16 3-6 2-29 2-26 1-14zm-141 137m49 12m-1 1v3z" fill="#443D2F"/>
<path transform="translate(368,225)" d="m0 0 10 2 17 6 25 12-2 2h-3l4 2-2 2-5-1v-2h-4l-1 3h3l1 3v7l-4-3-2-4h-2l1 3-4 2-2 2-5-5-8-5-12-5h-8v2l-15 3-5 2-9 2h-5l2-4 8-8 13-10z" fill="#FBFAF9"/>
<path transform="translate(563,370)" d="m0 0v3l-4 7-3 12-3 15-1 3-1 38h-1l-1-12-2 33-2-1v-2h-2v2l-4-2 3-5 1-1-7 1v-2l-3 1-1-5 1-20 5-13v-2l-4 7-2-1 1-5 5-7 1-5h-2v-5l4-10v-2l-2-1 4-2v3h2l2-4 4-2 1-4z" fill="#222017"/>
<path transform="translate(362,484)" d="m0 0 1 4h4v2l-5 1 4 11 3 15 7 15-1 2 1 4-1 3-2-1 2 6-1 2h-8l1 3-5-1-2-1v-2l-4-1-2 1-5-8 2-4h4l1-5 4-2h3l1-5 1-3-8 5-9 1-5 2-1-5-4 2-2 2 1-7 7-7 7-10h2l1-7 7-11z" fill="#130F0B"/>
<path transform="translate(239,270)" d="m0 0h8l-3 21-3 8 1 9-7 6-11 4-4-1-4 2-4-4 2-5 5-8 5-21 1-6-3-2 7-2z" fill="#FBFBF9"/>
<path transform="translate(627,526)" d="m0 0 2 1-3 8-13 25-6 11-9 13-2-1 2-5 3-5-2-1v2l-5 5-5 3-4 6-4 4-7 13-2 1-1-3-4 6-5 10-4 1-1-8-9 3-9 4-7 2h-5l-1 2v-2l-11 1-3-1-1 3-3 5v4l-5 3-2 3 1 1 13 2v1l-14-1-6-1 1-8-2-1-1 3-6-2-3 1-2-1v-5h13l1-5-1-1-13-1v-1h26l23-1 6-2 19-10 7-4 3 1 4-7h2l1-4 8-6 4-5h2l2-4 11-11 9-12 10-14 7-12z" fill="#4C4536"/>
<path transform="translate(430,513)" d="m0 0 6 3v-2l2 1-1 3 1 6 3-1 2 3v3h2l-1 7-2 1 2 3-1 5-3 3v6l-5-2-7-2-12-6-9-7 1-2 2 1-1-3-2-2 8-5 7-2 1-2 2-2 1-4h2z" fill="#1D1B13"/>
<path transform="translate(442,420)" d="m0 0 2 1-1 2 1 1 1 2v6l-3 1v2l2 1-3 4 2 1 1-3 1 4-3 3-2-2-3 6-2 5h-4l1 2 7-2 1-5h3l1-2 1 4-1 3 1 5-1 6-5 2-3 5-1 5 1 5h-3l7 3-3 2h-2l-1 3-3-1v-5l-2 2v4l6 1v4l-2 1-1 3-7 1v-9h-2v-7l1-5-4-1 4-7 2-6 4 1-1-7h-2v-3h-2v-14l1 4 2 1 1 2 1-15-1-3-2-2 4-7 2 1v8l2 5-1 3 3-1 1-3h3v-3l-2-1 1-2h3l-2-2v-6zm-6 36m-4 6v2h3v-2z" fill="#18140F"/>
<path transform="translate(323,267)" d="m0 0 3 3 2 6-1 4-1-1-1 16 1 10-2 11-4-1-5-4-12-2h-7-3l-8-2 1-3 12-7 10-8 7-8 6-12zm-30 38 1 3 1-3z" fill="#F9F8F6"/>
<path transform="translate(365,247)" d="m0 0h9l11 5 9 6 5 5v2l4 1-2 2 1 2-2 5h-2l-1-2h-5l-1-3v-4l-2-1-2 4v6l6 1v3h-2l-1 3-3 1-9-11-5-7-5-5-2-1v3l-6-2v-4l2-2h-5v2l-4 1-1-3h-6v-3l12-3z" fill="#4B4335"/>
<path transform="translate(429,484)" d="m0 0h2l1 5h2l3-3 3 3 1-3h3l1 7h2v35l-1 8v7l-5 5v-3h2l-1-4v-3l-1-2h3l-1-4 2-3h-2l-3-5h-2l-2-7v-1l-6-2-4 6-4 4-5 2 6-7v-10l2-7-1-1v-10h1v9l7-1 1-4h2l-1-3-6-2v-5z" fill="#4C4537"/>
<path transform="translate(373,532)" d="m0 0 11 7 12 8 9 4-3 4v6l30 12 6 2 7 1-3 2h-5l-8-4-14-5-8-1-18-8-13-5-10-5v-2l8-1-1-7h2z" fill="#D4CCC0"/>
<path transform="translate(258,492)" d="m0 0h2l-1 5-5 9-2 5h-2l-3 9-6 22-7 2h-4v2h-5l-1-4 6-14 14-22 10-11z" fill="#F7F6F4"/>
<path transform="translate(563,370)" d="m0 0v3l-4 7-3 12-3 15-2 3h-2l-3 4-3 3-4 9 1 2h2l1 7-4 4-1 5-4-1v-4l3-3h2l-1-5-2-1-1 3-1-2 5-12-5 8-2-1 1-5 5-7 1-5h-2v-5l4-10v-2l-2-1 4-2v3h2l2-4 4-2 1-4z" fill="#4B4334"/>
<path transform="translate(512,621)" d="m0 0h24l4 1v5l-1 1h-6l-2 8-4 4-4-1 2 4h-10l-16-3 4-5 5-2-1-5 2-1 2-4z" fill="#130F0B"/>
<path transform="translate(365,512)" d="m0 0h3l3 10 5 10-1 2 1 4-1 3-2-1 2 6-1 2h-8l1 3-5-1-2-1v-2l-4-1-2 1-5-8 2-4h4l1-5 4-2h3l1-5 1-3-7 4-3-1 9-6z" fill="#1E1B13"/>
<path transform="translate(565,364)" d="m0 0 3 1-2 4-2 2-6 5-6 7-1 3-5 4-1 2h-2l-1-2v1l-2 9-3 9h2v5l-3 2h-3l1-13v-3l1 2h3v-5l-2 1-3-3v-2h2l1-3h2l-1-6-5 1-2-12 5 1v-2l5-1 6 1-2 4-2 3 5-1 1-4 4-5z" fill="#524A3C"/>
<path transform="translate(390,566)" d="m0 0 13 2 9 2v4l2 1v-2l5 2v5l5 1 5 2h3l2-5 6 1 6-1-1 2-12 6-3 3-5 3-1 2-4-1-15-4-1-2h6l-3-5-1-5-5-3v-2l-9-2z" fill="#19140F"/>
<path transform="translate(533,433)" d="m0 0 1 2-1 20v10l-1 7-1 4v24l3 1 2 6v5l-4-1-1-5-3 6-2 7-4-1v2l-4 1-2 4h-2v4l-7 6-2 3h-2l-1 3-6 5h-2l-1 3-9 7h-2v2l-6 4-5 5-5 2-2-3 11-6 8-7 6-5h2l2-4h2l2-4h2v-2h2l2-4 9-9 12-16 3-6 2-29 2-26 1-14z" fill="#494132"/>
<path transform="translate(328,610)" d="m0 0h17l34 2 12 1h17l6-3h9l2 1v2l9 2 50 2 5 1h34l14-1-1 2-5 1-28 1-57-2-15-2-10-3-10 1-3 1h-16l-41-3-22-1-4 1z" fill="#D4CCC0"/>
<path transform="translate(511,532)" d="m0 0 9 1-1 3h-3l-1 2h-1l1 3-2 5-13 8-6 4-5 2h-3l-1 3-9 6v-3l-1-4 5-4h2v-2l11-8 3-3h2l2-4 5-4 5-1z" fill="#15100C"/>
<path transform="translate(532,395)" d="m0 0h4l1 2 2-2-1 7-4-1 1 2v6l-2 7h3l1-2-1 5-3 4v3l6-8 1 2-7 14-1 14-3 45h-1v-20l1-20v-9h-3l-1-4h2l-3-3-1 5-3 1-3-1v-4l5-2 1-9 3 1 4-2 1-10-1-5 1-10z" fill="#D4CCC0"/>
<path transform="translate(421,475)" d="m0 0v3l3 1v12l1 10 1 3-3 8-2-4h2l-3-7-9-3-6-1-1-6 3-4-2-1 1-4 7 1 2-4z" fill="#D5CDC1"/>
<path transform="translate(339,468)" d="m0 0h3v3l-4 1-1 6-2-1 3 9 4 2 2-10 4 3 4 1-13 12-9 6h-6l2-3-1-3 4 2 1-3-3-6-3-1-1-2-1 3v-4h2l1-4 1-5 1 2h5v-2h2l-1-4z" fill="#1F1D15"/>
<path transform="translate(442,420)" d="m0 0 2 1-1 2 1 1 1 2v6l-3 1v2l2 1-3 4 2 1 1-3 1 4-3 3-2-2-3 6-2 5h-4l1 2 5-1v5l-4 2-3 3-1-4-1-2-1-3h-2v-14l1 4 2 1 1 2 1-15-1-3-2-2 4-7 2 1v8l2 5-1 3 3-1 1-3h3v-3l-2-1 1-2h3l-2-2v-6z" fill="#140F0B"/>
<path transform="translate(240,309)" d="m0 0 5 2 4 2-2 1-2 4-2 5-4 2h-4l-1 8-4-1-7-5-5-6 1-4 2-1 4 1 12-5z" fill="#1E1C14"/>
<path transform="translate(299,308)" d="m0 0 13 1 6 3 5 4v7h-15l-8-2-1 32h-1v-38z" fill="#D2CABE"/>
<path transform="translate(496,622)" d="m0 0h16l-2 5-2 2v4l-5 3-2 3 1 1 13 2v1l-14-1-6-1 1-8-2-1-1 3-6-2-3 1-2-1v-5h13z" fill="#1F1C14"/>
<path transform="translate(335,521)" d="m0 0 2 1v2l5-2 2 5 7-3 3 1-8 6h-2v3l-6-1 1 2 3 1-1 2-4 2-6-1v2h-2l-2 5-5-1-4 6-6 1 2-4 5-5 13-9 2-3v-8z" fill="#242118"/>
<path transform="translate(313,547)" d="m0 0 2 1-5 5-11 6-4 3 2 2-22 6-10 4-6 2-9-7-2-6 4 2 5 2 2-4 6 4h8l12-4 16-8 11-7z" fill="#473F31"/>
<path transform="translate(440,465)" d="m0 0h7v28h-2l-1-7-3 1-1 2-3-1 2-3-7-3 2-2v-4l2-6z" fill="#595143"/>
<path transform="translate(551,384)" d="m0 0h2l1 8-5 12-3 3-5 7h-2v-5h-2v-5l4-10v-2l-2-1 4-2v3h2l2-4 4-2z" fill="#14100C"/>
<path transform="translate(565,364)" d="m0 0 3 1-2 4-2 2-6 5-7 8-10 5h-2l1-5 1-3 4-3h2l1-4 4-5z" fill="#F1EFEC"/>
<path transform="translate(362,484)" d="m0 0 1 4h4v2l-5 1 4 11v5l-9 1-1 2-5-1-5 5-4 2 6-9 3-4h2l1-7 7-11z" fill="#1E1B14"/>
<path transform="translate(323,388)" d="m0 0 4 2v3l4 1 1 11 1 1v14l-1 9h-1l-2-22-5-1-6-4-2-9 3-1z" fill="#D4CCC0"/>
<path transform="translate(434,292)" d="m0 0h13l2 1v2l-5-1-1 2h-2l-1 2h2l7 8v2l4 1 1 4-2 3-4-1-3 1v-2h2v-5l-7-1v3l-3-1 1-5h-2l-3-6-1-4z" fill="#16120D"/>
<path transform="translate(373,529)" d="m0 0 3 3-1 2 1 4-1 3-2-1 2 6-1 2h-8l1 3-5-1-3-3 3-10 5-5 2-1 3 1z" fill="#494132"/>
<path transform="translate(413,538)" d="m0 0 4 1 6 4 2-3 4 1v2l12-1-1 12-5-2-7-2-12-6-3-3z" fill="#1F1914"/>
<path transform="translate(272,270)" d="m0 0h5l1 6-5 2-6 4-5 5-7 4-4-1v-4l7-2v-2l9-7 3-3h2z" fill="#201D15"/>
<path transform="translate(540,359)" d="m0 0 4 1 2 10h6l-4 5-1 3-3 2-3-1 5-7h-11v2l-4-1-1-8 6-2 4 2v-2z" fill="#1A1611"/>
<path transform="translate(513,525)" d="m0 0 1 4-7 6-2 3h-2l-1 3-6 5h-2l-1 3-9 7h-2v2l-6 4-5 5-5 2-2-3 11-6 8-7 6-5h2l2-4h2l2-4h2v-2l8-7z" fill="#494132"/>
<path transform="translate(444,392)" d="m0 0h2l1 2v13l-1 4v3h-6l2-5-1-3h-2l1-9-5 2-4 1 1-3h3l2-4h6z" fill="#4B4334"/>
<path transform="translate(321,473)" d="m0 0h3v10l1 1v2h3l3 8-2 3-4-3 2 4v1l2 2v3l6-5-2 4-5 6-4-4-2-7-1-9z" fill="#473F30"/>
<path transform="translate(256,543)" d="m0 0 3 2 2 5 7 8v5l-4-1-4-5-4-1-3-1 2 5-5-5 2-9z" fill="#484031"/>
<path transform="translate(627,526)" d="m0 0 2 1-3 8-13 25-3 4-5-1 1-4 11-15 9-15z" fill="#201B14"/>
<path transform="translate(445,506)" d="m0 0h2v22l-1 8v7l-5 5v-3h2l-1-4v-3l-1-2h3l-1-4 2-3h-2l-3-5h-2v-3l5-2 2-4-2-1h2v-2h-3l1-3 2 1z" fill="#4D4536"/>
<path transform="translate(549,384)" d="m0 0h2v2l-5 4-1 2h-2l-1-2v1l-2 9-3 9h2v5l-3 2h-3l1-13v-3l1 2h3v-5l-2 1-3-3v-2h2l1-3 10-4z" fill="#4A4233"/>
<path transform="translate(508,624)" d="m0 0 2 1-2 4v4l-5 3-2 3 1 1 13 2v1l-14-1-6-1 2-6 4-8 4-2z" fill="#4B4335"/>
<path transform="translate(415,613)" d="m0 0h6l15 4 13 1-1 2-7 1-1 3h-11l-2-2h2l1-4-12-2h-10l3-2z" fill="#1E1C14"/>
<path transform="translate(363,551)" d="m0 0h6l2 1v2l6 2 3 3-3 2-9-1h-15v-1h6v-2h-2l-1-3h6l3 1 3-1v-2h-5z" fill="#221F17"/>
<path transform="translate(313,222)" d="m0 0h2l2 5 6 4-3 7-10 4-1-3h2l-1-4 3-5-1-6zm10 7 2 1-2 1z" fill="#1E1C14"/>
<path transform="translate(322,325)" d="m0 0 4 4v5l-4-1-1 19 5 1v3h-2v3h-2v8l-5 4-5 2-3-1 4-3 7-2v-28z" fill="#D0C8BC"/>
<path transform="translate(464,567)" d="m0 0 2 2-13 8-5 3h-2v3l-4 1 1 3 3 1-2 4-4-2-1-3h-7l4-4 16-8 5-5zm-23 15m-1 1v3z" fill="#5F5749"/>
<path transform="translate(371,553)" d="m0 0 5 1 8 4v4l2 1v2l5 2 2 3 5 1 3 2-6 2-5-4-1-2-8-4-13-4v-2l9 1 2-2-8-4z" fill="#4C4435"/>
<path transform="translate(544,631)" d="m0 0h1l-1 8-5 3-3 3 3 1-5 1-7-1 3-1 1-2 3 1v-2l-4-1 1-4 4-2 3 2v-2l5-3z" fill="#484031"/>
<path transform="translate(239,270)" d="m0 0h6l-1 5h-11l-2 4-2 3-4-2v-5l-3-2 7-2z" fill="#4C4435"/>
<path transform="translate(384,558)" d="m0 0 5 1 18 8 1 2-13-1-9-3v-2l-3-1z" fill="#423B2D"/>
<path transform="translate(549,427)" d="m0 0h1v54l-2-3-1-11v-13z" fill="#17120E"/>
<path transform="translate(532,395)" d="m0 0h4l1 2 2-2-1 7-4-1 1 2v6l-2 7h3l1-2-1 5-4 6h-1v-9l-1-5 1-10z" fill="#D4CCC0"/>
<path transform="translate(546,618)" d="m0 0h3v5l5-1v4h-3v6l2 3v3l-5 1-1-3v-10h-3l-1-3 2-1z" fill="#120D0A"/>
<path transform="translate(431,422)" d="m0 0 2 1v8l2 5-1 3h-3l2 3v8l-3 2-4-1-1-9 1 4 2 1 1 2 1-15-1-3-2-2z" fill="#1D1B13"/>
<path transform="translate(245,270)" d="m0 0 2 1-2 15-2-4-1-3-1 2h-9l-3 3h-3l1-3h2l4-6 2-1h9z" fill="#D8D1C6"/>
<path transform="translate(240,309)" d="m0 0 1 2-4 4-9 3-1 6v4h2l1 3-4-2-8-8 1-4 2-1 4 1 12-5z" fill="#4D4536"/>
<path transform="translate(248,563)" d="m0 0 4 2 5 2 2-4 5 5-2 4 3 2-6 2-9-7z" fill="#524A3C"/>
<path transform="translate(443,447)" d="m0 0 2 1-1 6 1 5-4 5v-2h-4l-2 4-4-1 4-1v-2l-2-1 3-2 2-4 2-6h3z" fill="#494132"/>
<path transform="translate(362,484)" d="m0 0 1 4h4v2l-5 1 2 8h-5l-6 4 1-7 7-11z" fill="#463F31"/>
<path transform="translate(390,566)" d="m0 0 13 2 9 2 1 6h-3v-2h-3l-1 2-5-2v-2l-9-2z" fill="#25221A"/>
<path transform="translate(253,555)" d="m0 0 7 1 4 4v2l4 1v-5h1v6l-3 1 7 2v1h-8l-8-6-4-5z" fill="#D4CCC0"/>
<path transform="translate(535,455)" d="m0 0 1 2h2l1-2 4 1v2l3-1 1 2v10l-2-1v-2h-2v2l-4-2 3-5 1-1-7 1-2-5z" fill="#484031"/>
<path transform="translate(327,312)" d="m0 0 9 3 2 4 3 1v2h-4v2l-6-1-2-4-2-2z" fill="#232017"/>
<path transform="translate(241,304)" d="m0 0 1 4-7 6-11 4-4-1-4 2-2-3 9-3 13-2 1-2h2z" fill="#D2CABE"/>
<path transform="translate(541,418)" d="m0 0 1 2-3 6 1 2h2l1 7-4 4-1 5-4-1v-4l3-3h2l-1-5-2-1-1 3-1-2 6-12z" fill="#494132"/>
<path transform="translate(299,308)" d="m0 0 10 1 5 5 3 4-9-3-9-1z" fill="#504839"/>
<path transform="translate(415,526)" d="m0 0 3 1v5l-4 4h-3l1 4-4-2v-3l2 1-1-3-2-2z" fill="#4F4739"/>
<path transform="translate(288,233)" d="m0 0 2 1-10 9-8 6h-2v2l-9 6-2-1 8-7 13-10z" fill="#D4CCC0"/>
<path transform="translate(423,358)" d="m0 0 5 2-2 2 3 2-1 3-2 1v5l1 2-2 5-3-1v-20z" fill="#D2CABE"/>
<path transform="translate(545,378)" d="m0 0h2v5l5-3 2 1-5 4-8 4h-2l1-5 1-3z" fill="#D6CEC3"/>
<path transform="translate(444,504)" d="m0 0h3v2h-2v4h-2l-1 2h3v5l-1 3-5 1-1-3 2-3-1-5 1-2 3-1z" fill="#1E1C14"/>
<path transform="translate(331,557)" d="m0 0 3 2 16 1v1l-9 1h-16l-8 1-8-1v-1l12-1 1-2v2l8-1z" fill="#3B362B"/>
<path transform="translate(571,594)" d="m0 0 1 3h-2l-2 5-3 4-2-2-11 6-5 3-2-1 19-12 5-4h2z" fill="#D4CCC0"/>
<path transform="translate(415,613)" d="m0 0h6l15 4 13 1-1 2-13-1-17-3h-10l3-2z" fill="#494132"/>
<path transform="translate(337,456)" d="m0 0h5l-1 5-3 2h-7l1-6z" fill="#16120D"/>
<path transform="translate(512,322)" d="m0 0 3 3-1 4v5h-2l-1 4-3 1 1-5-1-4 1-7 2 1z" fill="#CAC2B6"/>
<path transform="translate(391,195)" d="m0 0h6l2 1 2 7h-9v-2l-2-1h2z" fill="#211F16"/>
<path transform="translate(493,555)" d="m0 0 4 1-8 4h-3l-1 3-9 6v-3-2l11-7z" fill="#5E5648"/>
<path transform="translate(522,637)" d="m0 0 4 2 1 1 1-3 3 3 3 2v2l-4 1-13-1v-1l7-1z" fill="#27241B"/>
<path transform="translate(264,567)" d="m0 0h13l1 2-11 4h-5v-4z" fill="#353026"/>
<path transform="translate(424,456)" d="m0 0h3l3 3v5 3h-4l-2 4zm8 6h3v2h-3z" fill="#524A3B"/>
<path transform="translate(250,511)" d="m0 0 2 4h2l-1 4-5 10-1-6-1-3z" fill="#51493B"/>
<path transform="translate(534,400)" d="m0 0 1 2 4-1-2 8h2v5l-3 2h-3l1-13z" fill="#5C5445"/>
<path transform="translate(430,454)" d="m0 0 2 2 5-1v5l-4 2-3 3-1-4-3-6z" fill="#1B1811"/>
<path transform="translate(563,370)" d="m0 0v3l-7 12-2 3-2-2 1-2-2-1z" fill="#3A3529"/>
<path transform="translate(496,622)" d="m0 0h16l-1 2-6 2-4 1-3-1v2h-2z" fill="#1D1B13"/>
<path transform="translate(624,525)" d="m0 0 2 1-8 9-7 8-5 4 2-4 9-11z" fill="#332D23"/>
<path transform="translate(339,493)" d="m0 0 1 4-5 4h-2l-6 5 1-5z" fill="#D4CCC0"/>
<path transform="translate(365,512)" d="m0 0h3l-1 8h2l-1 2-5-1-5 3-3-1 9-6z" fill="#3B3529"/>
<path transform="translate(443,447)" d="m0 0 2 1-1 6 1 5h-6l-1-4 2-6h3z" fill="#18140E"/>
<path transform="translate(442,420)" d="m0 0 2 1-1 2 1 1 1 2v6l-3 1v2l2 1-2 2v-2l-4-1h3v-3l-2-1 1-2h3l-2-2v-6z" fill="#1C1A12"/>
<path transform="translate(282,272)" d="m0 0h3v2l2 2-2 1-1 3 3 1-1 2-4-1-3-6 1-3z" fill="#BAB2A5"/>
<path transform="translate(434,578)" d="m0 0 6 1 6-1-1 2-13 6-3-2 3-1z" fill="#1E1C14"/>
<path transform="translate(323,499)" d="m0 0 6 1-1 5 7-6-2 4-5 6-4-4z" fill="#494132"/>
<path transform="translate(384,565)" d="m0 0 6 1 3 4 5 1 3 2-6 2-5-4-1-2-5-3z" fill="#645C4D"/>
<path transform="translate(550,414)" d="m0 0h1v34h-1l-1-23h-1l1-9z" fill="#494132"/>
<path transform="translate(322,325)" d="m0 0 4 4v5l-4-1-1 19h-1v-13z" fill="#D4CCC0"/>
<path transform="translate(322,614)" d="m0 0 3 1-4 4 1 2-10 1-5 2 4-4z" fill="#484235"/>
<path transform="translate(244,340)" d="m0 0h8l8 4-1 2-11-2v-2z" fill="#201D15"/>
<path transform="translate(319,543)" d="m0 0 4 1-5 7-6 1 2-4z" fill="#232017"/>
<path transform="translate(253,526)" d="m0 0h1v8l2 9-4-2-1-4 1-3h-2l-1-5 3 1z" fill="#574F41"/>
<path transform="translate(362,484)" d="m0 0 1 4h4v2l-5 1-1 3h-2l-1 2-2-1 2-5z" fill="#4D473D"/>
<path transform="translate(324,268)" d="m0 0 2 2 2 6-1 4-1-1-1 14h-1z" fill="#D0C8BC"/>
<path transform="translate(487,632)" d="m0 0 6 2 1-2 3 1-1 7-6-2v-3l-5-1z" fill="#120D0A"/>
<path transform="translate(599,572)" d="m0 0 3 1-5 8-4-1 3-5 3-1zm-8 8h2l-1 4h-2z" fill="#1A1711"/>
<path transform="translate(329,536)" d="m0 0 2 1-3 7-1 2-4-2-2-2z" fill="#453E2F"/>
<path transform="translate(444,531)" d="m0 0h1l1 5v7l-5 5v-3h2l-1-4v-3l-1-2h3l-1-4z" fill="#4C4435"/>
<path transform="translate(440,399)" d="m0 0 2 4h2v11h-4l2-5-1-3h-2v-6z" fill="#17140E"/>
<path transform="translate(390,566)" d="m0 0 10 2 4 4-3 1-9-3z" fill="#17130E"/>
<path transform="translate(627,526)" d="m0 0 2 1-3 8-4 8-4 1 2-5 6-10z" fill="#2B251C"/>
<path transform="translate(305,330)" d="m0 0h8v2h2v2l-9 1z" fill="#D4CCC0"/>
<path transform="translate(524,621)" d="m0 0h4l1 4-2 2-7 1-1-4 3-1 2 1z" fill="#1E1C14"/>
<path transform="translate(313,222)" d="m0 0h2l3 9 2 5h-4l-1-2v-6h-2l-1-4z" fill="#15110D"/>
<path transform="translate(485,634)" d="m0 0 5 1 1 3 3 2-13-1z" fill="#2E2A1F"/>
<path transform="translate(313,547)" d="m0 0 2 1-5 5-11 6h-3l5-4 11-7z" fill="#494132"/>
<path transform="translate(500,541)" d="m0 0 3 1-5 6-5 3h-2v2l-3-1 5-4 3-3h2z" fill="#1E1C14"/>
<path transform="translate(351,503)" d="m0 0 2 1-1 4-5 4-3 4-2-1zm2 2 4 1h-2l-1 3z" fill="#342E23"/>
<path transform="translate(536,430)" d="m0 0 3 1v5h-2l-1 3-3 1 1-7z" fill="#211F16"/>
<path transform="translate(532,395)" d="m0 0h4l1 2 2-2-1 7-4-1h-3z" fill="#CCC4B8"/>
<path transform="translate(569,619)" d="m0 0h1v5l-5 4-2-1v2h-2l1-4 4-3h2z" fill="#3F382B"/>
<path transform="translate(265,334)" d="m0 0 4 2 3 4v3l-4-1-3-3z" fill="#C0B8AC"/>
<path transform="translate(325,622)" d="m0 0h9l8 1 1 2h-11-3-8z" fill="#70685A"/>
<path transform="translate(344,478)" d="m0 0 4 3 4 1-6 5h-2z" fill="#1E1913"/>
<path transform="translate(431,422)" d="m0 0 2 1v10l-4-1-2-3z" fill="#1A1711"/>
<path transform="translate(232,273)" d="m0 0 1 4-4 5-4-2 2-1 1-5z" fill="#2C281E"/>
<path transform="translate(414,573)" d="m0 0 5 2v5l5 1-3 1-6-3-2-4z" fill="#1E1C14"/>
<path transform="translate(335,521)" d="m0 0 2 1v2l5-2v3l-3 3h-3l-1 3-1-8z" fill="#473F31"/>
<path transform="translate(325,494)" d="m0 0 4 2 1-2 3 1-1 4-6 1-2-1 2-2z" fill="#242118"/>
<path transform="translate(434,468)" d="m0 0 2 4-1 4h-7l1-3 4-1z" fill="#201E15"/>
<path transform="translate(550,370)" d="m0 0 2 1-4 4-1 3-3 2-3-1 6-8z" fill="#363024"/>
<path transform="translate(344,317)" d="m0 0h4l1 6-4 1h-2z" fill="#201E15"/>
<path transform="translate(321,558)" d="m0 0 1 2h6l-3 2-8 1-8-1v-1l12-1z" fill="#544E42"/>
<path transform="translate(258,545)" d="m0 0 5 2 3 4-3 3-5-7z" fill="#D0C9BD"/>
<path transform="translate(361,255)" d="m0 0h3l2 4v3l-6-2v-4z" fill="#81796B"/>
<path transform="translate(341,516)" d="m0 0 1 4v3l-4 2-2 2 1-7z" fill="#262219"/>
<path transform="translate(534,363)" d="m0 0h2v5h-2l-1 5h-2l-1-8z" fill="#201E15"/>
<path transform="translate(509,316)" d="m0 0 2 2 2-1 2 4-1 3-1-1-2 2-2-2z" fill="#F9F8F6"/>
<path transform="translate(316,227)" d="m0 0 7 4-3 7h-3l2-4-3-4zm7 2 2 1-2 1z" fill="#302C22"/>
<path transform="translate(321,473)" d="m0 0h3v10h-2l-1 4z" fill="#393327"/>
<path transform="translate(473,561)" d="m0 0m-1 1m-2 1h2l-1 4-5 2-2-3z" fill="#3D3629"/>
<path transform="translate(430,375)" d="m0 0h4l-3 6h-2v2h-3v-3l3-3z" fill="#191610"/>
<path transform="translate(283,564)" d="m0 0h6v2l-7 2h-5v-2z" fill="#403A2D"/>
<path transform="translate(444,490)" d="m0 0 1 3h2v2l-2 2v2l-5 2 1-5h2z" fill="#1A1711"/>
<path transform="translate(339,468)" d="m0 0h3v3l-6 2-3-1 1-3z" fill="#17130E"/>
<path transform="translate(549,384)" d="m0 0h2v2l-5 4-1 2h-2l-1-2-2-1z" fill="#494132"/>
<path transform="translate(341,355)" d="m0 0h2v7l-4 1-1-4z" fill="#27231A"/>
<path transform="translate(395,196)" d="m0 0h4l2 7-4-1-3-5z" fill="#14100C"/>
<path transform="translate(300,557)" d="m0 0 2 1-1 2 4 2-11 1 5-5z" fill="#28251B"/>
<path transform="translate(334,531)" d="m0 0 1 2v6l-2 1-2-1-1 2-1-3z" fill="#29251B"/>
<path transform="translate(565,364)" d="m0 0 3 1-2 4-2 2v-3l-5-1 2-2z" fill="#B8B0A4"/>
<path transform="translate(505,318)" d="m0 0 2 1v4h2l1 5-2 2-3-8z" fill="#F9F9F7"/>
<path transform="translate(513,599)" d="m0 0h5l-4 6-4 1z" fill="#3A3327"/>
<path transform="translate(440,585)" d="m0 0h2l1 2 3 1-2 4-4-2-1-4z" fill="#4C4436"/>
<path transform="translate(442,580)" d="m0 0 2 1-5 5-7 1 4-4z" fill="#4E4637"/>
<path transform="translate(437,393)" d="m0 0h3l-1 4-5 3h-3l1-3h3z" fill="#18140F"/>
<path transform="translate(446,292)" d="m0 0 3 1v2l-5-1-1 2h-2l-2 2-1-5z" fill="#1E1C14"/>
<path transform="translate(302,564)" d="m0 0h2v2l-3 1-1-2z" fill="#847C6E"/>
<path transform="translate(298,566)" d="m0 0" fill="#D4CCC0"/>
<path transform="translate(312,564)" d="m0 0" fill="#D4CCC0"/>
<path transform="translate(315,563)" d="m0 0" fill="#D4CCC0"/>
<path transform="translate(393,205)" d="m0 0" fill="#D4CCC0"/>
<path transform="translate(392,204)" d="m0 0" fill="#494132"/>
</svg>
