<svg width="29" height="28" viewBox="0 0 29 28" fill="none" xmlns="http://www.w3.org/2000/svg">
<g opacity="0.5" clip-path="url(#clip0_62_19960)">
<path d="M5.75 4.375L23.25 23.625" stroke="#F5EFDB" stroke-width="2" stroke-linecap="round" stroke-linejoin="round"/>
<path d="M17.4437 17.2375C16.5851 18.0181 15.4515 18.4256 14.2924 18.3704C13.1333 18.3152 12.0435 17.8019 11.2629 16.9432C10.4823 16.0846 10.0748 14.951 10.13 13.7919C10.1851 12.6328 10.6985 11.5431 11.5571 10.7625" stroke="#F5EFDB" stroke-width="2" stroke-linecap="round" stroke-linejoin="round"/>
<path d="M15.3232 9.70264C16.2534 9.88075 17.1006 10.3559 17.7376 11.0566C18.3747 11.7574 18.7671 12.6459 18.8561 13.5887" stroke="#F5EFDB" stroke-width="2" stroke-linecap="round" stroke-linejoin="round"/>
<path d="M23.3169 18.4953C25.7013 16.3603 26.7502 14 26.7502 14C26.7502 14 23.2502 6.12501 14.5002 6.12501C13.7424 6.12398 12.9859 6.18544 12.2383 6.30876" stroke="#F5EFDB" stroke-width="2" stroke-linecap="round" stroke-linejoin="round"/>
<path d="M8.59375 7.50317C4.13453 9.76067 2.25 14 2.25 14C2.25 14 5.75 21.875 14.5 21.875C16.5502 21.8911 18.5748 21.4187 20.4062 20.4969" stroke="#F5EFDB" stroke-width="2" stroke-linecap="round" stroke-linejoin="round"/>
</g>
<defs>
<clipPath id="clip0_62_19960">
<rect width="28" height="28" fill="white" transform="translate(0.5)"/>
</clipPath>
</defs>
</svg>
