<svg width="16" height="17" viewBox="0 0 16 17" fill="none" xmlns="http://www.w3.org/2000/svg">
<path d="M7.99967 15.1667C11.6816 15.1667 14.6663 12.1819 14.6663 8.5C14.6663 4.8181 11.6816 1.83333 7.99967 1.83333C4.31778 1.83333 1.33301 4.8181 1.33301 8.5C1.33301 12.1819 4.31778 15.1667 7.99967 15.1667Z" stroke="white" stroke-linecap="round" stroke-linejoin="round"/>
<path d="M5.33372 2.5H6.00039C4.70039 6.39333 4.70039 10.6067 6.00039 14.5H5.33372" stroke="white" stroke-linecap="round" stroke-linejoin="round"/>
<path d="M10 2.5C11.3 6.39333 11.3 10.6067 10 14.5" stroke="white" stroke-linecap="round" stroke-linejoin="round"/>
<path d="M2 11.1667V10.5C5.89333 11.8 10.1067 11.8 14 10.5V11.1667" stroke="white" stroke-linecap="round" stroke-linejoin="round"/>
<path d="M2 6.49999C5.89333 5.19999 10.1067 5.19999 14 6.49999" stroke="white" stroke-linecap="round" stroke-linejoin="round"/>
</svg>
