<svg width="17" height="17" viewBox="0 0 17 17" fill="none" xmlns="http://www.w3.org/2000/svg">
<g opacity="0.5">
<path d="M6.47917 15.1667H10.4792C13.8125 15.1667 15.1458 13.8333 15.1458 10.5V6.5C15.1458 3.16667 13.8125 1.83334 10.4792 1.83334H6.47917C3.14583 1.83334 1.8125 3.16667 1.8125 6.5V10.5C1.8125 13.8333 3.14583 15.1667 6.47917 15.1667Z" stroke="white" stroke-linecap="round" stroke-linejoin="round"/>
<path d="M1.8125 8.96667L5.8125 8.95333C6.3125 8.95333 6.8725 9.33333 7.05917 9.8L7.81917 11.72C7.9925 12.1533 8.26583 12.1533 8.43917 11.72L9.96583 7.84667C10.1125 7.47333 10.3858 7.46 10.5725 7.81333L11.2658 9.12667C11.4725 9.52 12.0058 9.84 12.4458 9.84H15.1525" stroke="white" stroke-linecap="round" stroke-linejoin="round"/>
</g>
</svg>
