<?xml version="1.0" encoding="utf-8"?>
<!DOCTYPE svg PUBLIC "-//W3C//DTD SVG 1.0//EN" "http://www.w3.org/TR/2001/REC-SVG-20010904/DTD/svg10.dtd">
<svg version="1.0" xmlns="http://www.w3.org/2000/svg" width="307px" height="297px" viewBox="0 0 307 297" preserveAspectRatio="xMidYMid meet">
 <g fill="#DCCA87">
  <path d="M118.5 257.3 c-3.3 -0.1 -8.9 -0.6 -12.5 -0.9 -5.8 -0.6 -6.2 -0.8 -4 -1.7 1.4 -0.6 5.6 -2.6 9.4 -4.4 l7 -3.4 4.6 2 c2.6 1.1 6.6 2.3 8.8 2.7 4.7 0.7 6.5 2.3 5.6 4.8 -0.6 1.6 -2.4 1.7 -18.9 0.9z"/>
  <path d="M199.3 256.4 c-1 -2.7 1.1 -4.8 5.7 -5.6 13 -2.2 10.4 -5 -47.9 -52 -9 -7.3 -9.6 -8 -9.6 -11.5 0 -3.7 -0.1 -3.8 -5 -4.8 -2.7 -0.6 -5 -1.5 -5 -2.1 0 -0.5 0.6 -3.8 1.4 -7.4 1.4 -6.8 3.6 -12 5 -12 1 0 3.6 2 15.2 12 4.2 3.6 13.6 11.5 21 17.6 7.4 6.1 19.9 16.4 27.9 23.1 18.2 15.1 36.8 29.5 44 34.1 5.9 3.7 7 4.8 7 7.3 0 1.3 -2.8 1.5 -23.2 1.5 -12.8 -0.1 -26.1 0.3 -29.6 0.7 -5.4 0.7 -6.3 0.6 -6.9 -0.9z"/>
  <path d="M65.7 256.4 c-1 -1.1 -0.9 -4.2 0.3 -4.9 0.5 -0.3 3.5 -1 6.6 -1.5 7.1 -1.2 9.9 -3.7 11.4 -10.1 1.3 -5.2 3 -6.1 6.3 -3.6 2.7 2 0.1 5.6 -7.8 10.8 -4.5 3 -7.2 5.5 -7.5 7 -0.5 2 -1.3 2.5 -4.6 2.7 -2.2 0.2 -4.3 0 -4.7 -0.4z"/>
  <path d="M80.7 255.3 c-2.5 -0.6 -1.6 -2.5 2.3 -4.8 5.7 -3.4 11.7 -10.2 12.5 -14.1 0.7 -4.2 0.2 -5.2 -1.9 -3.5 -2.2 1.8 -5.4 0.4 -7.2 -3.2 l-1.7 -3.1 -1.6 3.4 c-2.2 4.7 -4.5 5.9 -6.9 3.7 -1 -0.9 -2.6 -1.7 -3.5 -1.7 -1.4 0 -3.7 -2.7 -3.7 -4.4 0 -0.3 1.3 -2 2.9 -3.9 l2.9 -3.3 -3.2 0.4 c-2.1 0.2 -4 -0.3 -5.6 -1.7 -2.2 -1.7 -2.3 -2.2 -1.3 -4 0.7 -1.1 1 -2.7 0.7 -3.6 -1.6 -4 4.6 -5.9 9.3 -2.8 2.6 1.7 2.7 1.7 1.9 -0.2 -1.7 -4.5 -1.8 -7.2 -0.1 -8.8 0.9 -1 2.1 -1.4 2.7 -1.1 0.5 0.4 2.1 0.1 3.4 -0.6 2.1 -1.2 2.7 -1.1 4.5 0.6 1.7 1.5 2 2.6 1.5 5.6 l-0.6 3.6 3.8 -2.1 c4.1 -2.2 6.9 -1.9 7.8 1 0.3 1 1 2.6 1.5 3.5 0.5 1 0.9 2.4 0.9 3.2 0 2 -3.9 4.6 -6.7 4.6 -2.8 0 -3 1.6 -0.4 2.3 1 0.2 2.7 1.7 3.6 3.1 1.7 2.5 1.7 2.7 0 4.6 -0.9 1 -1.8 3.8 -2 6.2 -0.1 2.4 -0.5 5.2 -0.9 6.3 -0.4 1.1 0.8 0.3 2.8 -2 5 -5.6 9.6 -17.1 9.6 -23.7 -0.1 -17.1 -9.1 -31.1 -20.1 -31.1 -3 0 -4.6 0.6 -5.6 1.9 -1.9 2.6 -1.2 4.8 1.5 5.2 2.8 0.4 2.4 2.6 -0.5 3 -3.2 0.5 -6.9 -5.2 -5.7 -8.6 1.1 -3.3 6.8 -7.2 10.3 -7.2 3.3 0 9.1 3.6 12.6 7.8 1.5 1.8 3 3.1 3.2 2.8 1.2 -1.1 -7.6 -15.3 -17.2 -27.6 -14.4 -18.5 -20.9 -32.5 -19 -41.2 1.4 -6.3 9.2 -13.8 14.4 -13.8 1.9 0 2 -0.4 1.5 -5.8 -0.7 -6.1 1.3 -12.2 3.9 -12.2 0.8 0 1.3 -1.8 1.3 -4.8 0.3 -8.9 5.7 -15.1 7.1 -8.1 0.8 4.2 1.9 2.1 2.8 -5.6 0.4 -3.3 1.6 -8 2.7 -10.5 l1.9 -4.5 1.7 3 c0.8 1.7 1.9 4.6 2.2 6.5 0.6 3.4 0.7 3.3 2.9 -4 3.5 -11.7 4.1 -12.9 8.4 -16.5 2.2 -1.9 4.4 -3.5 4.8 -3.5 0.5 0 0.2 1.7 -0.5 3.8 -1.5 4.1 -3.2 18.2 -2.2 18.2 1 0 4.3 -7.3 6 -13.4 2.7 -9.4 13.4 -19 23.4 -20.9 3.2 -0.6 4.5 0.6 1.8 1.6 -3 1.2 -9.8 11.8 -13.7 21.3 -7.9 19.4 -9 20.8 -21.6 29.1 -6.1 4 -11.6 7.3 -12 7.3 -1.4 0 -16.3 14 -16.3 15.2 0 0.6 2.4 -1.2 5.3 -3.9 8.8 -8.3 12.5 -9.8 24.2 -9.8 11.4 0 14.6 1.2 22.6 8.7 7.2 6.8 8.5 14.5 2.7 16.4 -3 0.9 -6.9 -3.6 -9.1 -10.7 -1.1 -3.6 -3.1 -6.8 -5.3 -9 -3.2 -3.1 -4.1 -3.4 -10.8 -3.7 -6.1 -0.3 -8.2 0 -12.2 1.9 l-4.9 2.3 7.8 0.7 c8.2 0.7 12.4 2.7 16.5 7.9 3.1 4 3.5 6.5 1.4 9 -2.7 3.3 -4.6 2.1 -8.2 -5.4 -1.7 -3.6 -4.1 -7.2 -5.3 -8.1 -2.6 -1.8 -12.8 -2 -16 -0.4 -2.6 1.3 -8.7 7 -8.7 8 0 0.4 2.7 2.2 6.1 4 3.6 2 8.3 5.7 11.6 9.3 4.5 4.9 5.5 5.6 5 3.5 -1 -4.2 1.3 -6.3 7.3 -6.6 4.5 -0.1 5.2 0.1 6.2 2.3 0.8 1.7 0.8 3.4 0.1 5.9 -0.6 1.9 -1 3.5 -0.8 3.5 0.2 0 2 -1 4 -2.1 4.5 -2.7 8.5 -1.5 8.5 2.5 0 1.4 0.5 2.8 1 3.1 1.6 1 1.2 4 -0.8 5.8 -1 1 -3.5 1.7 -5.4 1.7 l-3.5 0 3.4 3.6 c3.7 4 3.9 6.1 0.8 7.8 -1.1 0.6 -2.6 1.9 -3.3 2.9 -2.5 3.2 -6.4 1.8 -8.8 -3.2 l-2.1 -4.4 -0.7 2.9 c-1.5 5.9 -6.4 8.4 -8.8 4.5 -0.6 -1 -1.7 -1.7 -2.4 -1.4 -1.7 0.6 -4.3 -3.4 -3.7 -5.8 0.3 -1.1 2 -3.1 3.7 -4.4 l3.1 -2.5 -3.5 0 c-6 0 -10 -4.1 -6.6 -6.9 0.7 -0.6 1.1 -2.2 0.8 -3.6 -0.6 -3.2 3.4 -5.3 6.8 -3.5 4 2.1 3.2 0.3 -2.2 -5.2 -5.8 -5.9 -13 -9.5 -17.2 -8.4 -5.1 1.3 -5.9 13.2 -1.6 24.5 3.1 8.1 5.6 12.5 13.6 24.8 7.2 11 15 26.1 15.9 31.2 3.3 17.4 -0.9 35 -11.1 46.9 -5.2 6.1 -3.6 6.3 1.9 0.2 5 -5.6 9 -13.2 10.6 -20.1 0.6 -2.4 1.1 -11.1 1.1 -19.4 0 -18.4 2.6 -29.2 8.3 -35.3 2.5 -2.8 10.3 -6.9 14.1 -7.6 3.1 -0.6 3.1 -0.5 0.6 4.3 -1 2.1 -2.6 7.2 -3.4 11.2 -1.1 4.9 -2.4 8.1 -4 9.8 l-2.5 2.6 6.9 0.1 c3.8 0 7.2 0.2 7.5 0.5 0.8 0.8 -9.5 17.8 -13.1 21.5 l-3.1 3.3 4.6 0.6 c2.5 0.3 6.1 0.8 8 1.1 l3.3 0.5 -2 2.2 c-1.1 1.2 -3.6 4.7 -5.6 7.8 -1.9 3.2 -5.1 7 -7.1 8.6 l-3.5 2.9 3.5 1.4 c3.3 1.3 4.7 3 2.4 3 -0.6 0 -7.4 3.1 -15.2 6.9 -7.8 3.9 -16.7 7.6 -19.7 8.5 -6.3 1.6 -13.7 2.5 -16.3 1.9z m32.1 -45.8 c0.3 -9.3 0.1 -12 -1.6 -17 -2.6 -7.7 -4.5 -11.8 -8.5 -18.2 -10 -16.3 -13.4 -22.4 -17 -30.7 -3.3 -7.5 -4.1 -10.6 -4.5 -17.3 -0.2 -4.6 0 -9.5 0.6 -11.2 2 -5.7 -5.1 -2.5 -8.7 3.9 -1.9 3.5 -2.3 5.2 -1.9 10.8 0.5 9.8 5.4 18.5 19.3 34.2 7.6 8.6 12.6 16.3 16.6 25.8 3.2 7.2 3.4 8.4 3.4 19.2 0 6.3 -0.3 13.1 -0.7 15 l-0.7 3.5 1.6 -3.5 c1 -2.2 1.8 -7.5 2.1 -14.5z m-28.3 6.5 c-0.5 -0.8 -1.1 -0.8 -1.7 -0.2 -0.6 0.6 -0.7 1.6 -0.3 2.2 0.5 0.8 1.1 0.8 1.7 0.2 0.6 -0.6 0.7 -1.6 0.3 -2.2z m34.5 -79.6 c0 -0.9 -0.5 -1.4 -1.2 -1.2 -1.8 0.6 -2.1 2.8 -0.4 2.8 0.9 0 1.6 -0.7 1.6 -1.6z"/>
  <path d="M101.1 222.8 c-1 -1.7 -1 -2.3 0.5 -3.9 0.9 -1 2.1 -1.9 2.6 -1.9 1.2 0 0.9 4.3 -0.5 6.2 -1.2 1.5 -1.4 1.5 -2.6 -0.4z"/>
  <path d="M102 205.5 c-0.9 -2.3 -4.7 -4.1 -8 -3.7 -2.2 0.2 -6.2 -6.6 -5.3 -9.2 0.3 -1.1 0.7 -3 0.7 -4 0.1 -3.2 2.2 -2.9 6.3 0.8 4.1 3.7 7.7 10 8.7 15.4 0.7 3.8 -1 4.4 -2.4 0.7z"/>
  <path d="M90.3 175.3 c-1.3 -0.5 -1.8 -4.3 -0.7 -4.3 0.8 0 3.3 3.2 3.4 4.3 0 0.8 -0.8 0.8 -2.7 0z"/>
  <path d="M103.6 163.5 c-14.7 -22.4 -14.4 -21.7 -14.7 -35.6 -0.1 -6.4 0.1 -12 0.5 -12.7 0.9 -1.5 5.2 0.1 9.1 3.4 l3 2.5 -2.2 1.8 c-2.1 1.8 -4.3 7.7 -4.3 11.9 0 1.3 1.2 3.4 2.6 4.7 2.1 2 2.4 2.9 1.8 5.9 -0.6 3.7 1.4 8.6 3.7 8.6 0.5 0 2.3 1 4 2.2 l3 2.3 3.7 -2 3.7 -2 4 2 c2.2 1.1 4.2 2.1 4.4 2.3 0.3 0.1 -0.5 1.2 -1.6 2.5 -1.1 1.2 -2.6 3.2 -3.2 4.5 -1.5 2.8 -2.6 2.8 -6.8 -0.4 -3.6 -2.8 -4 -2.5 -4.5 3.6 -0.3 3.5 -0.3 3.5 -6.2 -5.5z"/>
  <path d="M130 156 c0 -1.6 4.1 -3.3 5.2 -2.2 0.6 0.6 -0.1 1.3 -2.1 2 -1.8 0.6 -3.1 0.7 -3.1 0.2z"/>
  <path d="M140 131.1 c-0.5 -1.1 -1 -2.8 -1 -3.8 0 -1 9.4 -11.2 22.1 -23.8 12.1 -12.1 24 -24.6 26.5 -27.8 7 -9.3 5.6 -15.2 -3.8 -16.4 -5.3 -0.7 -6.8 -1.8 -6.8 -5 0 -1.3 0.6 -2.6 1.3 -2.8 0.6 -0.2 14.1 -0.5 30 -0.7 l28.7 -0.3 0 2.8 c0 1.5 -0.6 3 -1.2 3.2 -19.8 6.8 -33.2 17.2 -72.9 56.3 -11.3 11.1 -20.9 20.2 -21.2 20.2 -0.3 0 -1.1 -0.9 -1.7 -1.9z"/>
  <path d="M105.4 114.9 c-1 -1.2 -4.3 -3.7 -7.1 -5.6 -2.9 -1.8 -5.3 -3.8 -5.3 -4.3 0 -0.5 1.3 -1.8 3 -3 2.3 -1.7 4.1 -2 8.7 -1.8 l5.8 0.3 0.3 6.2 c0.3 5.9 -0.9 10.3 -2.7 10.3 -0.4 0 -1.6 -1 -2.7 -2.1z"/>
  <path d="M137.3 86 c-3.5 -2.2 -8 -4.5 -10 -5 -3.1 -0.8 -2 -0.9 5.5 -0.7 10.4 0.4 14.7 2.3 14.7 6.8 0 3.7 -3.3 3.4 -10.2 -1.1z"/>
  <path d="M141.5 78.5 c-2.2 -0.8 -5.1 -1.5 -6.4 -1.5 -4.7 0 -0.7 -1.8 5.4 -2.5 5.1 -0.6 6.4 -0.4 8.4 1.2 4.7 3.8 0.2 5.5 -7.4 2.8z"/>
  <path d="M85.1 66.5 c-2.2 -5.2 -2.6 -5.6 -7.4 -7 -2.8 -0.8 -6.1 -1.5 -7.3 -1.5 -2.3 0 -4.1 -1.7 -3.8 -3.7 0.1 -0.7 0.2 -1.8 0.3 -2.4 0.1 -1.3 31 -0.2 32.4 1 1.1 1.1 -3.3 14.1 -4.8 14.1 -0.6 0 -2.2 1.1 -3.5 2.5 -1.3 1.4 -2.6 2.5 -3 2.5 -0.3 0 -1.7 -2.5 -2.9 -5.5z"/>
  <path d="M140.3 68.4 c4.1 -2.7 8 -2.9 8.5 -0.3 0.3 1.9 -2.4 2.9 -8.3 2.9 l-4 0 3.8 -2.6z"/>
 </g>
</svg>