<svg width="18" height="18" viewBox="0 0 18 18" fill="none" xmlns="http://www.w3.org/2000/svg">
<g clip-path="url(#clip0_57_40451)">
<path d="M17.7308 11.1764C16.5283 16.0004 11.6408 18.9329 6.82368 17.7303C1.99954 16.5279 -0.932916 11.6406 0.269639 6.82354C1.47212 1.99954 6.35251 -0.932915 11.1767 0.269639C15.9938 1.46509 18.9333 6.35237 17.7308 11.1764Z" fill="url(#paint0_linear_57_40451)"/>
<path d="M13.2855 7.87852C13.4613 6.68321 12.5543 6.03633 11.3027 5.60743L11.7105 3.98321L10.7262 3.73712L10.3324 5.31915C10.0723 5.25587 9.80508 5.19258 9.53789 5.13633L9.93164 3.54727L8.94727 3.30118L8.54648 4.91837C8.32852 4.86915 8.11758 4.81993 7.91367 4.77071V4.76368L6.54961 4.42618L6.28945 5.48087C6.28945 5.48087 7.0207 5.64962 7.00664 5.65665C7.40742 5.75508 7.47773 6.02227 7.46367 6.23321L6.99961 8.08243C7.02773 8.08946 7.06289 8.09649 7.10508 8.11758C7.06992 8.11055 7.03477 8.10352 6.99961 8.08946L6.35273 10.677C6.30352 10.7965 6.17695 10.9793 5.90273 10.909C5.90977 10.9231 5.18555 10.7332 5.18555 10.7332L4.69336 11.8652L5.98008 12.1887C6.21914 12.252 6.45117 12.3082 6.6832 12.3715L6.27539 14.0098L7.25977 14.2559L7.66758 12.6316C7.93477 12.702 8.20195 12.7723 8.45508 12.8356L8.0543 14.4527L9.03867 14.6988L9.44648 13.0606C11.134 13.377 12.3996 13.2504 12.927 11.7246C13.3559 10.5012 12.9059 9.79102 12.0199 9.32696C12.6738 9.1793 13.159 8.7504 13.2855 7.87852ZM11.0285 11.0426C10.7262 12.266 8.65898 11.6051 7.99102 11.4363L8.53242 9.26368C9.20039 9.43243 11.352 9.7629 11.0285 11.0426ZM11.3379 7.85743C11.0566 8.9754 9.34102 8.40587 8.78555 8.26524L9.27773 6.29649C9.8332 6.43712 11.6262 6.69727 11.3379 7.85743Z" fill="white"/>
</g>
<defs>
<linearGradient id="paint0_linear_57_40451" x1="899.513" y1="-0.432" x2="899.513" y2="1799.82" gradientUnits="userSpaceOnUse">
<stop stop-color="#F9AA4B"/>
<stop offset="1" stop-color="#F7931A"/>
</linearGradient>
<clipPath id="clip0_57_40451">
<rect width="18" height="18" fill="white"/>
</clipPath>
</defs>
</svg>
