<svg width="28" height="28" viewBox="0 0 28 28" fill="none" xmlns="http://www.w3.org/2000/svg">
<g opacity="0.5" clip-path="url(#clip0_93_22501)">
<path d="M16.9437 17.2377C16.0851 18.0183 14.9515 18.4258 13.7924 18.3707C12.6333 18.3155 11.5435 17.8021 10.7629 16.9435C9.98232 16.0848 9.57478 14.9513 9.62995 13.7922C9.68513 12.633 10.1985 11.5433 11.0571 10.7627" stroke="#F5EFDB" stroke-width="2" stroke-linecap="round" stroke-linejoin="round"/>
<path d="M14.8232 9.70264C15.7534 9.88075 16.6006 10.3559 17.2376 11.0566C17.8747 11.7574 18.2671 12.6459 18.3561 13.5887" stroke="#F5EFDB" stroke-width="2" stroke-linecap="round" stroke-linejoin="round"/>
<path d="M22.8166 18.4953C25.201 16.3603 26.2499 14 26.2499 14C26.2499 14 22.7499 6.12501 13.9999 6.12501C13.2422 6.12398 12.4857 6.18544 11.738 6.30876" stroke="#F5EFDB" stroke-width="2" stroke-linecap="round" stroke-linejoin="round"/>
<path d="M8.09375 7.50293C3.63453 9.76043 1.75 13.9998 1.75 13.9998C1.75 13.9998 5.25 21.8748 14 21.8748C16.0502 21.8909 18.0748 21.4185 19.9062 20.4967" stroke="#F5EFDB" stroke-width="2" stroke-linecap="round" stroke-linejoin="round"/>
</g>
<defs>
<clipPath id="clip0_93_22501">
<rect width="28" height="28" fill="white"/>
</clipPath>
</defs>
</svg>
