<svg width="17" height="17" viewBox="0 0 17 17" fill="none" xmlns="http://www.w3.org/2000/svg">
<g opacity="0.5">
<path d="M10.76 3.97334L11.7 5.85333C11.8266 6.11333 12.1666 6.35999 12.4533 6.41333L14.1533 6.69333C15.24 6.87333 15.4933 7.66 14.7133 8.44666L13.3866 9.77333C13.1666 9.99333 13.04 10.4267 13.1133 10.74L13.4933 12.38C13.7933 13.6733 13.1 14.18 11.96 13.5L10.3666 12.5533C10.08 12.38 9.59997 12.38 9.3133 12.5533L7.71996 13.5C6.57996 14.1733 5.88663 13.6733 6.18663 12.38L6.56664 10.74C6.63997 10.4333 6.5133 10 6.2933 9.77333L4.96664 8.44666C4.18664 7.66666 4.43997 6.87999 5.52664 6.69333L7.22663 6.41333C7.5133 6.36666 7.8533 6.11333 7.97997 5.85333L8.91997 3.97334C9.41997 2.95334 10.2466 2.95334 10.76 3.97334Z" stroke="white" stroke-linecap="round" stroke-linejoin="round"/>
<path d="M5.83398 3.83334H1.83398" stroke="white" stroke-linecap="round" stroke-linejoin="round"/>
<path d="M3.83398 13.1667H1.83398" stroke="white" stroke-linecap="round" stroke-linejoin="round"/>
<path d="M2.50065 8.5H1.83398" stroke="white" stroke-width="1.5" stroke-linecap="round" stroke-linejoin="round"/>
</g>
</svg>
