<svg width="21" height="20" viewBox="0 0 21 20" fill="none" xmlns="http://www.w3.org/2000/svg">
<g clip-path="url(#clip0_152_31614)">
<path d="M15.8333 18.0001L15.3987 18.5054C15.5253 18.6139 15.688 18.671 15.8547 18.6654L15.8333 18.0001ZM14.412 15.7174C14.3024 15.5786 14.1421 15.489 13.9665 15.4684C13.7908 15.4478 13.6141 15.4978 13.4753 15.6074C13.3365 15.717 13.247 15.8773 13.2264 16.053C13.2057 16.2286 13.2557 16.4053 13.3653 16.5441L14.412 15.7174ZM14.9427 15.1707L14.7107 14.5467C14.7017 14.5497 14.6928 14.5528 14.684 14.5561L14.9427 15.1707ZM12.6253 15.8587L12.5133 15.2001L12.5027 15.2014L12.6253 15.8587ZM8.48668 15.8427L8.36001 16.4961L8.36401 16.4974L8.48668 15.8427ZM4.97068 14.6121L4.60001 15.1654C4.61427 15.1754 4.62895 15.1847 4.64401 15.1934L4.97068 14.6121ZM4.82668 14.5321L5.19601 13.9774C5.17291 13.9621 5.14886 13.9483 5.12401 13.9361L4.82668 14.5321ZM4.76268 14.4841L5.23334 14.0121C5.18977 13.9686 5.14042 13.9314 5.08668 13.9014L4.76268 14.4841ZM7.63468 16.5107C7.7443 16.3719 7.7943 16.1953 7.77367 16.0196C7.75304 15.844 7.66347 15.6837 7.52468 15.5741C7.38588 15.4644 7.20922 15.4145 7.03356 15.4351C6.8579 15.4557 6.69763 15.5453 6.58801 15.6841L7.63468 16.5107ZM5.16668 18.0001L5.14534 18.6667C5.31517 18.6722 5.48066 18.6126 5.60801 18.5001L5.16668 18.0001ZM1.16668 14.9961H0.50001C0.499815 15.0318 0.502491 15.0675 0.50801 15.1027L1.16668 14.9961ZM3.46801 3.67874L3.06801 3.14541C2.96622 3.22196 2.88849 3.32606 2.84401 3.44541L3.46801 3.67874ZM7.95868 2.00007L8.62268 1.93741C8.60734 1.77462 8.53272 1.62314 8.413 1.51178C8.29328 1.40042 8.13681 1.33694 7.97334 1.33341L7.95868 2.00007ZM7.45468 3.74141C7.47147 3.91751 7.55754 4.07973 7.69394 4.19238C7.83034 4.30502 8.00591 4.35887 8.18201 4.34207C8.35811 4.32528 8.52033 4.23921 8.63298 4.10281C8.74563 3.96641 8.79947 3.79084 8.78268 3.61474L7.45468 3.74141ZM12.156 3.65741C12.1336 3.8328 12.1817 4.00994 12.2898 4.14984C12.398 4.28974 12.5573 4.38095 12.7327 4.40341C12.9081 4.42586 13.0852 4.37772 13.2251 4.26957C13.365 4.16143 13.4562 4.00214 13.4787 3.82674L12.156 3.65741ZM13.0413 2.00007L13.0267 1.33341C12.8672 1.33689 12.7142 1.39746 12.5955 1.50413C12.4769 1.6108 12.4004 1.75649 12.38 1.91474L13.0413 2.00007ZM17.532 3.67874L18.156 3.44541C18.1115 3.32606 18.0338 3.22196 17.932 3.14541L17.532 3.67874ZM19.8333 14.9961L20.492 15.1027C20.4975 15.0675 20.5002 15.0318 20.5 14.9961H19.8333ZM9.14134 11.7334L8.47468 11.7227V11.7334H9.14134ZM15.8333 18.0001L16.268 17.4947L16.2653 17.4921C16.2452 17.4759 16.2256 17.459 16.2067 17.4414C15.9649 17.2321 15.7266 17.0187 15.492 16.8014C15.0587 16.4041 14.612 15.9721 14.412 15.7174L13.3653 16.5441C13.6427 16.8961 14.1693 17.3974 14.5893 17.7841C14.8497 18.0232 15.1132 18.2588 15.38 18.4907L15.3933 18.5014L15.3973 18.5041L15.8333 18.0001ZM16.4147 13.6721C15.8013 14.0761 15.2227 14.3561 14.7107 14.5467L15.1747 15.7961C15.8686 15.5349 16.5306 15.1958 17.148 14.7854L16.4147 13.6721ZM14.6853 14.5561C13.9886 14.854 13.2598 15.0706 12.5133 15.2014L12.7373 16.5161C13.584 16.368 14.4108 16.1228 15.2013 15.7854L14.6853 14.5561ZM12.5027 15.2027C11.2152 15.4395 9.89484 15.4341 8.60934 15.1867L8.36401 16.4974C9.81165 16.7751 11.2984 16.7805 12.748 16.5134L12.5027 15.2027ZM8.61334 15.1881C7.85055 15.0388 7.103 14.8201 6.38001 14.5347L5.89468 15.7761C6.57734 16.0427 7.40134 16.3121 8.36001 16.4961L8.61334 15.1881ZM6.38001 14.5347C6.00757 14.3917 5.64538 14.2234 5.29601 14.0307L4.64401 15.1934C5.07868 15.4374 5.50801 15.6254 5.89468 15.7761L6.38001 14.5347ZM5.34001 14.0574C5.29418 14.0266 5.24604 14.0008 5.19601 13.9774C5.16934 13.9641 5.18134 13.9667 5.19601 13.9774L4.45601 15.0867C4.50201 15.1172 4.55014 15.1444 4.60001 15.1681C4.62801 15.1814 4.61601 15.1774 4.60001 15.1654L5.34001 14.0574ZM5.12401 13.9361C5.16417 13.9562 5.20103 13.9822 5.23334 14.0134L4.29068 14.9561C4.32134 14.9867 4.39868 15.0627 4.52801 15.1294L5.12401 13.9361ZM5.08668 13.9014C4.95967 13.8311 4.83515 13.7564 4.71334 13.6774L4.69868 13.6667C4.69823 13.6667 4.69912 13.6667 4.69868 13.6667L4.31468 14.2134L3.93334 14.7587L3.93468 14.7601L3.93734 14.7627L3.94668 14.7681L3.97468 14.7867L4.07468 14.8521C4.16001 14.9054 4.28268 14.9801 4.43868 15.0667L5.08668 13.9014ZM6.58801 15.6854C6.38534 15.9427 5.93601 16.3854 5.50401 16.7907C5.26752 17.0118 5.02839 17.2301 4.78668 17.4454L4.74134 17.4867L4.72801 17.4974L4.72668 17.5001H4.72534L5.16668 18.0001L5.60801 18.5001L5.60934 18.4987L5.61334 18.4961L5.62668 18.4841L5.67468 18.4414C5.92357 18.2181 6.17025 17.9923 6.41468 17.7641C6.83468 17.3694 7.35868 16.8614 7.63468 16.5107L6.58801 15.6854ZM5.18801 17.3334C3.63334 17.2841 2.81734 16.6387 2.37468 16.0534C2.12845 15.7265 1.94739 15.3553 1.84134 14.9601C1.83492 14.9353 1.82914 14.9104 1.82401 14.8854V14.8881L1.16668 14.9961C0.50801 15.1027 0.50801 15.1014 0.509343 15.1027V15.1107C0.519094 15.1677 0.531553 15.2243 0.546677 15.2801C0.696123 15.8506 0.955656 16.3864 1.31068 16.8574C1.98401 17.7467 3.16801 18.6041 5.14534 18.6667L5.18801 17.3334ZM1.83334 14.9961C1.83334 12.5067 2.39334 9.74274 2.96268 7.57741C3.26476 6.43061 3.60989 5.29558 3.99734 4.17474C4.02662 4.09189 4.0564 4.00923 4.08668 3.92674L4.09201 3.91341L3.46801 3.67874L2.84268 3.44541L2.84134 3.45074L2.83601 3.46541C2.803 3.55393 2.771 3.64282 2.74001 3.73207C2.34051 4.88669 1.98471 6.05597 1.67334 7.23741C1.09068 9.44407 0.50001 12.3374 0.50001 14.9961H1.83334ZM3.86801 4.21207C4.93468 3.41207 5.97068 3.02541 6.73468 2.83874C7.1109 2.74702 7.49472 2.68989 7.88134 2.66807C7.90311 2.66727 7.92489 2.66682 7.94668 2.66674L7.95868 2.00007L7.97334 1.33341H7.96668C7.95423 1.3332 7.94179 1.3332 7.92934 1.33341H7.83868C7.73182 1.33729 7.6251 1.3444 7.51868 1.35474C7.14794 1.39066 6.7803 1.45349 6.41868 1.54274C5.20513 1.84414 4.06528 2.38843 3.06801 3.14274L3.86801 4.21207ZM7.29468 2.06274L7.45468 3.74141L8.78268 3.61474L8.62268 1.93741L7.29468 2.06274ZM13.4787 3.82674L13.7027 2.08541L12.38 1.91474L12.156 3.65741L13.4787 3.82674ZM13.0413 2.00007L13.0547 2.66674H13.0533C13.0751 2.66567 13.0969 2.66567 13.1187 2.66674C13.1693 2.66941 13.252 2.67341 13.3573 2.68407C13.5707 2.70274 13.8827 2.74674 14.2653 2.84007C15.3038 3.09902 16.279 3.56575 17.132 4.21207L17.932 3.14541C16.9348 2.39107 15.7949 1.84677 14.5813 1.54541C14.2198 1.4557 13.8521 1.39242 13.4813 1.35607C13.332 1.34217 13.182 1.33461 13.032 1.33341H13.0267L13.0413 2.00007ZM17.532 3.67874L16.9067 3.91074L16.908 3.91474L16.9133 3.92674L16.9307 3.97607L17.0013 4.17474C17.3892 5.29557 17.7348 6.4306 18.0373 7.57741C18.608 9.74274 19.1667 12.5067 19.1667 14.9961H20.5C20.5 12.3374 19.908 9.44407 19.3267 7.23741C19.0152 6.05599 18.6594 4.88672 18.26 3.73207C18.2351 3.66171 18.2097 3.59149 18.184 3.52141L18.164 3.46541L18.1587 3.45207L18.1573 3.44674L17.532 3.67874ZM19.8333 14.9961L19.176 14.8894V14.8854L19.1733 14.8961L19.16 14.9587C19.144 15.0187 19.12 15.1094 19.0787 15.2214C18.996 15.4481 18.856 15.7494 18.6253 16.0534C18.1827 16.6387 17.3667 17.2841 15.812 17.3334L15.8547 18.6667C17.832 18.6041 19.0147 17.7467 19.6893 16.8587C20.0445 16.3874 20.304 15.8511 20.4533 15.2801C20.4664 15.228 20.478 15.1755 20.488 15.1227L20.4907 15.1094V15.1041C20.4907 15.1027 20.4907 15.1014 19.8333 14.9961ZM7.51201 9.29341C6.17601 9.29341 5.21468 10.4494 5.21468 11.7334H6.54801C6.54801 11.0694 7.02401 10.6267 7.51201 10.6267V9.29341ZM5.21468 11.7334C5.21468 13.0227 6.19601 14.1734 7.51201 14.1734V12.8401C7.03601 12.8401 6.54801 12.3947 6.54801 11.7334H5.21468ZM7.51201 14.1734C8.84534 14.1734 9.80801 13.0187 9.80801 11.7334H8.47468C8.47468 12.4001 7.99868 12.8401 7.51201 12.8401V14.1734ZM9.80668 11.7467C9.82801 10.4427 8.83734 9.29341 7.51201 9.29341L7.51068 10.6281C8.00668 10.6281 8.48401 11.0787 8.47334 11.7241L9.80668 11.7467ZM13.344 9.29341C12.008 9.29474 11.0467 10.4507 11.0467 11.7347H12.38C12.38 11.0707 12.856 10.6281 13.344 10.6281V9.29341ZM11.0467 11.7361C11.0467 13.0254 12.028 14.1761 13.344 14.1761V12.8427C12.868 12.8427 12.38 12.3974 12.38 11.7361H11.0467ZM13.344 14.1761C14.6773 14.1761 15.64 13.0214 15.64 11.7361H14.3067C14.3067 12.4027 13.8307 12.8427 13.344 12.8427V14.1761ZM15.64 11.7361C15.64 10.4521 14.6787 9.29607 13.344 9.29607V10.6281C13.8307 10.6281 14.3067 11.0721 14.3067 11.7361H15.64ZM5.48668 5.92007C7.41068 4.87074 8.97868 4.38141 10.504 4.38007C12.0307 4.38007 13.5947 4.86674 15.5147 5.91874L16.1547 4.75074C14.1253 3.63741 12.3347 3.04541 10.504 3.04674C8.67334 3.04674 6.88134 3.64007 4.84934 4.74941L5.48668 5.92007Z" fill="white"/>
</g>
<defs>
<clipPath id="clip0_152_31614">
<rect width="20" height="20" fill="white" transform="translate(0.5)"/>
</clipPath>
</defs>
</svg>
